<svg xmlns="http://www.w3.org/2000/svg" width="940" height="620" viewBox="0 0 940 620">
  <rect width="940" height="620" fill="#e7ecdf"/>
  <rect x="170" y="70" width="600" height="430" rx="30" fill="#9b6a43" stroke="#523418" stroke-width="10"/>
  <rect x="210" y="110" width="520" height="330" rx="24" fill="#efe4c8" stroke="#6d543a" stroke-width="4"/>
  <text x="470" y="150" font-family="Segoe UI, Arial, sans-serif" font-size="28" text-anchor="middle" fill="#3f2d18">Sala compartilhada</text>

  <g fill="#b88453" stroke="#523418" stroke-width="4">
    <rect x="255" y="200" width="54" height="24" rx="10"/>
    <rect x="335" y="200" width="54" height="24" rx="10"/>
    <rect x="415" y="200" width="54" height="24" rx="10"/>
    <rect x="495" y="200" width="54" height="24" rx="10"/>
    <rect x="575" y="200" width="54" height="24" rx="10"/>
    <rect x="255" y="300" width="54" height="24" rx="10"/>
    <rect x="335" y="300" width="54" height="24" rx="10"/>
    <rect x="415" y="300" width="54" height="24" rx="10"/>
    <rect x="495" y="300" width="54" height="24" rx="10"/>
    <rect x="575" y="300" width="54" height="24" rx="10"/>
  </g>

  <g fill="#6d543a">
    <rect x="271" y="228" width="22" height="14" rx="7"/>
    <rect x="351" y="228" width="22" height="14" rx="7"/>
    <rect x="431" y="228" width="22" height="14" rx="7"/>
    <rect x="511" y="228" width="22" height="14" rx="7"/>
    <rect x="591" y="228" width="22" height="14" rx="7"/>
    <rect x="271" y="328" width="22" height="14" rx="7"/>
    <rect x="351" y="328" width="22" height="14" rx="7"/>
    <rect x="431" y="328" width="22" height="14" rx="7"/>
    <rect x="511" y="328" width="22" height="14" rx="7"/>
    <rect x="591" y="328" width="22" height="14" rx="7"/>
  </g>

  <text x="470" y="385" font-family="Segoe UI, Arial, sans-serif" font-size="22" text-anchor="middle" fill="#3f2d18">10 estacoes individuais</text>

  <rect x="435" y="500" width="70" height="44" rx="12" fill="#7b7a75"/>
  <text x="470" y="528" font-family="Segoe UI, Arial, sans-serif" font-size="18" text-anchor="middle" fill="#ffffff">Entrada</text>
</svg>
