<svg xmlns="http://www.w3.org/2000/svg" width="980" height="640" viewBox="0 0 980 640">
  <rect width="980" height="640" fill="#eef3f8"/>
  <rect x="110" y="62" width="760" height="470" rx="34" fill="#d5deea" stroke="#9fadc0" stroke-width="8"/>
  <rect x="140" y="92" width="700" height="410" rx="28" fill="#fbfcfe" stroke="#dbe3ee" stroke-width="4"/>
  <rect x="204" y="224" width="572" height="182" rx="28" fill="#dce5f0"/>
  <rect x="252" y="258" width="476" height="106" rx="26" fill="#586678"/>
  <rect x="274" y="274" width="432" height="16" rx="8" fill="#d7dfe9"/>
  <rect x="274" y="332" width="432" height="16" rx="8" fill="#d7dfe9"/>

  <g fill="#1f2630">
    <rect x="292" y="264" width="22" height="14" rx="4"/>
    <rect x="382" y="264" width="22" height="14" rx="4"/>
    <rect x="472" y="264" width="22" height="14" rx="4"/>
    <rect x="562" y="264" width="22" height="14" rx="4"/>
    <rect x="652" y="264" width="22" height="14" rx="4"/>
    <rect x="292" y="336" width="22" height="14" rx="4"/>
    <rect x="382" y="336" width="22" height="14" rx="4"/>
    <rect x="472" y="336" width="22" height="14" rx="4"/>
    <rect x="562" y="336" width="22" height="14" rx="4"/>
    <rect x="652" y="336" width="22" height="14" rx="4"/>
  </g>

  <g fill="#7ed4ff">
    <rect x="294" y="266" width="18" height="10" rx="3"/>
    <rect x="384" y="266" width="18" height="10" rx="3"/>
    <rect x="474" y="266" width="18" height="10" rx="3"/>
    <rect x="564" y="266" width="18" height="10" rx="3"/>
    <rect x="654" y="266" width="18" height="10" rx="3"/>
    <rect x="294" y="338" width="18" height="10" rx="3"/>
    <rect x="384" y="338" width="18" height="10" rx="3"/>
    <rect x="474" y="338" width="18" height="10" rx="3"/>
    <rect x="564" y="338" width="18" height="10" rx="3"/>
    <rect x="654" y="338" width="18" height="10" rx="3"/>
  </g>

  <g fill="#d9dde7">
    <rect x="286" y="216" width="28" height="14" rx="6"/>
    <rect x="376" y="216" width="28" height="14" rx="6"/>
    <rect x="466" y="216" width="28" height="14" rx="6"/>
    <rect x="556" y="216" width="28" height="14" rx="6"/>
    <rect x="646" y="216" width="28" height="14" rx="6"/>
    <rect x="286" y="374" width="28" height="14" rx="6"/>
    <rect x="376" y="374" width="28" height="14" rx="6"/>
    <rect x="466" y="374" width="28" height="14" rx="6"/>
    <rect x="556" y="374" width="28" height="14" rx="6"/>
    <rect x="646" y="374" width="28" height="14" rx="6"/>
  </g>

  <rect x="702" y="120" width="136" height="150" rx="20" fill="#b8dff6" fill-opacity="0.45" stroke="#8fa4bb" stroke-width="4"/>
  <rect x="724" y="160" width="28" height="54" rx="12" fill="#afbbc9"/>
  <rect x="788" y="160" width="28" height="54" rx="12" fill="#afbbc9"/>
  <circle cx="770" cy="212" r="18" fill="#6a7787"/>
  <circle cx="770" cy="212" r="11" fill="#f6f8fb"/>

  <rect x="154" y="128" width="148" height="72" rx="18" fill="#6b7a8f"/>
  <rect x="160" y="128" width="136" height="14" rx="10" fill="#8d9bb0"/>
  <rect x="178" y="148" width="32" height="34" rx="10" fill="#222a34"/>
  <circle cx="225" cy="160" r="6" fill="#d8e4f4"/>
  <circle cx="243" cy="160" r="6" fill="#d8e4f4"/>

  <rect x="450" y="502" width="80" height="24" rx="12" fill="#313947"/>
  <rect x="462" y="532" width="56" height="12" rx="6" fill="#8db3d3"/>

  <text x="490" y="142" font-family="Aptos, Segoe UI, sans-serif" font-size="30" font-weight="700" text-anchor="middle" fill="#243041">Modern shared office</text>
  <text x="490" y="440" font-family="Aptos, Segoe UI, sans-serif" font-size="22" font-weight="700" text-anchor="middle" fill="#3a4758">10 estacoes em uma ilha central com notebooks</text>
  <text x="770" y="298" font-family="Aptos, Segoe UI, sans-serif" font-size="20" font-weight="700" text-anchor="middle" fill="#3a4758">Booth privado</text>
  <text x="228" y="226" font-family="Aptos, Segoe UI, sans-serif" font-size="18" font-weight="700" text-anchor="middle" fill="#3a4758">Coffee bar</text>
  <text x="490" y="574" font-family="Aptos, Segoe UI, sans-serif" font-size="18" font-weight="700" text-anchor="middle" fill="#3a4758">Entrada central</text>
</svg>
