<svg xmlns="http://www.w3.org/2000/svg" width="940" height="660" viewBox="0 0 940 660">
  <rect width="940" height="660" fill="#dfe8d6"/>
  <rect x="100" y="60" width="740" height="500" rx="24" fill="#9b6a43" stroke="#523418" stroke-width="10"/>
  <rect x="130" y="90" width="680" height="440" rx="18" fill="#dbc79d"/>
  <rect x="335" y="90" width="270" height="110" rx="16" fill="#efe4c8" stroke="#6d543a" stroke-width="4"/>
  <rect x="360" y="135" width="220" height="24" fill="#b88453"/>
  <text x="470" y="122" font-family="Segoe UI, Arial, sans-serif" font-size="24" text-anchor="middle" fill="#3f2d18">Sala de reuniao</text>

  <rect x="170" y="150" width="120" height="280" rx="12" fill="#9eb581" stroke="#4f673e" stroke-width="4"/>
  <rect x="650" y="150" width="120" height="280" rx="12" fill="#9eb581" stroke="#4f673e" stroke-width="4"/>
  <text x="230" y="182" font-family="Segoe UI, Arial, sans-serif" font-size="22" text-anchor="middle" fill="#24331f">5 estacoes</text>
  <text x="710" y="182" font-family="Segoe UI, Arial, sans-serif" font-size="22" text-anchor="middle" fill="#24331f">5 estacoes</text>
  <text x="230" y="210" font-family="Segoe UI, Arial, sans-serif" font-size="16" text-anchor="middle" fill="#24331f">baia silenciosa</text>
  <text x="710" y="210" font-family="Segoe UI, Arial, sans-serif" font-size="16" text-anchor="middle" fill="#24331f">baia silenciosa</text>

  <rect x="382" y="250" width="176" height="90" rx="20" fill="#b88453" stroke="#523418" stroke-width="5"/>
  <text x="470" y="302" font-family="Segoe UI, Arial, sans-serif" font-size="24" text-anchor="middle" fill="#3f2d18">Mesa compartilhada</text>

  <rect x="350" y="410" width="240" height="85" rx="18" fill="#efe4c8" stroke="#6d543a" stroke-width="4"/>
  <rect x="392" y="442" width="156" height="18" fill="#b88453"/>
  <text x="470" y="440" font-family="Segoe UI, Arial, sans-serif" font-size="22" text-anchor="middle" fill="#3f2d18">Feedback 1:1</text>

  <rect x="430" y="560" width="80" height="50" rx="12" fill="#7b7a75"/>
  <text x="470" y="592" font-family="Segoe UI, Arial, sans-serif" font-size="18" text-anchor="middle" fill="#ffffff">Entrada</text>
</svg>
